<svg width="1261" height="300" viewBox="0 0 1261 300" fill="none" xmlns="http://www.w3.org/2000/svg">
<path d="M278.485 220.519C288.122 201.231 293.554 179.475 293.554 156.447C293.554 77.1639 229.282 12.893 150 12.893C70.718 12.893 6.44649 77.1645 6.44649 156.447C6.44649 179.171 11.7352 200.658 21.1354 219.756L278.485 220.519Z" fill="#FF4155"/>
<path d="M278.485 220.519V132.117H21.1354V219.756C44.5318 267.288 93.4424 300 150 300C206.254 300 254.943 267.638 278.485 220.519Z" fill="#222D5B"/>
<path d="M90.9797 284.442C80.0883 270.839 74.2225 253.894 74.2225 236.467V149.39C74.2225 139.85 81.9563 132.117 91.4959 132.117H21.1354V219.756C36.44 250.849 62.6637 275.598 94.8029 289C93.4973 287.507 92.2226 285.987 90.9797 284.442Z" fill="#0E1B41"/>
<path d="M140.242 133.397H169.529L151.457 101.827H122.17L140.242 133.397ZM207.779 101.827H178.385L196.458 133.397H225.851L207.779 101.827ZM280.241 101.827H234.708L252.78 133.397H280.242C281.406 133.397 282.523 132.934 283.346 132.111C284.169 131.288 284.632 130.171 284.632 129.006V106.217C284.632 105.053 284.169 103.936 283.346 103.112C282.522 102.289 281.405 101.827 280.241 101.827ZM95.2412 101.827H63.1477L73.2809 111.877C74.325 112.913 74.3045 114.235 73.9371 115.127C73.5703 116.019 72.6533 116.971 71.1826 116.971H33.5889C32.7991 116.97 32.0419 116.656 31.4835 116.098C30.925 115.539 30.6109 114.782 30.61 113.992V101.827H19.3799C18.2155 101.827 17.0987 102.289 16.2754 103.113C15.452 103.936 14.9895 105.053 14.9895 106.217V129.006C14.9895 130.171 15.452 131.288 16.2754 132.111C17.0987 132.934 18.2155 133.397 19.3799 133.397H113.313L95.2412 101.827Z" fill="#2D3C6B"/>
<path d="M78.8889 129.006V106.217C78.8889 105.053 79.3514 103.936 80.1748 103.113C80.9982 102.289 82.1149 101.827 83.2793 101.827H63.1477L73.2809 111.877C74.325 112.913 74.3045 114.235 73.9371 115.127C73.5703 116.019 72.6533 116.971 71.1826 116.971H33.5889C32.7991 116.97 32.0419 116.656 31.4835 116.098C30.925 115.539 30.6109 114.782 30.61 113.992V101.827H19.3799C18.2155 101.827 17.0987 102.289 16.2754 103.113C15.452 103.936 14.9895 105.053 14.9895 106.217V129.006C14.9895 130.171 15.452 131.288 16.2754 132.111C17.0987 132.934 18.2155 133.397 19.3799 133.397H83.2793C82.1149 133.397 80.9982 132.934 80.1748 132.111C79.3514 131.288 78.8889 130.171 78.8889 129.006Z" fill="#222D5B"/>
<path d="M99.5461 41.9502L11.6502 64.2299C10.5216 64.516 9.55279 65.2388 8.957 66.2391C8.36121 67.2395 8.1872 68.4356 8.47324 69.5643L14.0725 91.6553C14.3586 92.7839 15.0813 93.7527 16.0817 94.3485C17.0821 94.9443 18.2782 95.1183 19.4068 94.8322L30.6094 91.9928V76.7051C30.6094 75.2414 31.5563 74.325 32.4428 73.9553C32.8153 73.801 33.2144 73.7216 33.6176 73.7215C34.3025 73.7215 35.0467 73.9553 35.6871 74.5898L48.6281 87.4254L89.526 77.059L99.5461 41.9502Z" fill="#2D3C6B"/>
<path d="M68.1756 78.3246L62.2799 55.0658C62.1124 54.4075 62.0924 53.7202 62.2214 53.0532C62.3503 52.3862 62.625 51.7559 63.0258 51.2074L11.6502 64.2299C10.5216 64.516 9.55279 65.2388 8.957 66.2391C8.36121 67.2395 8.1872 68.4356 8.47324 69.5643L14.0725 91.6553C14.3586 92.7839 15.0813 93.7527 16.0817 94.3485C17.0821 94.9443 18.2782 95.1183 19.4068 94.8322L30.6094 91.9928V76.7051C30.6094 75.2414 31.5563 74.325 32.4428 73.9553C32.815 73.8011 33.214 73.7216 33.617 73.7215C34.302 73.7215 35.0461 73.9553 35.6865 74.5899L48.6275 87.4254L71.4352 81.6445C70.6466 81.4292 69.9293 81.0084 69.3566 80.4252C68.784 79.8419 68.3764 79.117 68.1756 78.3246Z" fill="#222D5B"/>
<path d="M154.067 28.1309L126.314 35.1656L116.293 70.2744L144.046 63.2397L154.067 28.1309ZM208.703 14.2822L180.835 21.3463L170.814 56.4551L198.682 49.391L208.703 14.2822ZM275.449 25.4033L269.849 3.31231C269.563 2.18366 268.841 1.2149 267.84 0.619109C266.84 0.0233219 265.644 -0.150689 264.515 0.135353L235.471 7.49766L225.45 42.6064L272.272 30.7383C272.831 30.5966 273.356 30.3462 273.818 30.0014C274.28 29.6567 274.67 29.2242 274.965 28.7288C275.26 28.2334 275.455 27.6847 275.538 27.1142C275.621 26.5436 275.59 25.9622 275.449 25.4033Z" fill="#2D3C6B"/>
<path d="M73.7309 111.423L36.1371 74.1358C33.8531 71.8699 29.9695 73.4883 29.9695 76.7057V113.993C29.9695 114.953 30.3509 115.873 31.0296 116.552C31.7084 117.231 32.629 117.612 33.5889 117.612H71.1826C74.4135 117.612 76.0248 113.698 73.7309 111.423Z" fill="#3C5082"/>
<path d="M112.878 133.397H141.016L122.789 101.827H94.6506L112.878 133.397ZM169.098 133.397H197.237L179.009 101.827H150.871L169.098 133.397ZM225.374 133.397H253.513L235.286 101.827H207.148L225.374 133.397ZM89.1902 77.1439L116.508 70.2199L126.529 35.1111L99.211 42.0357L89.1902 77.1439ZM143.771 63.3094L171.089 56.3854L181.11 21.2766L153.792 28.2006L143.771 63.3094ZM198.407 49.4607L225.725 42.5367L235.746 7.42793L208.428 14.352L198.407 49.4607Z" fill="#DAE2FE"/>
<path d="M193.81 219.151H248.623C249.23 219.151 249.831 219.029 250.39 218.792C250.949 218.555 251.455 218.209 251.878 217.773C252.301 217.337 252.632 216.82 252.851 216.254C253.071 215.688 253.174 215.084 253.155 214.477C253.082 211.995 250.916 210.08 248.433 210.08H231.715C231.302 210.08 230.905 209.916 230.613 209.623C230.32 209.331 230.156 208.934 230.156 208.521V166.475C230.156 166.061 230.32 165.664 230.612 165.372C230.905 165.079 231.302 164.915 231.715 164.914H248.433C250.916 164.914 253.082 163.001 253.155 160.518C253.174 159.911 253.071 159.307 252.851 158.741C252.632 158.174 252.301 157.658 251.878 157.222C251.455 156.786 250.949 156.44 250.39 156.203C249.831 155.966 249.23 155.844 248.623 155.844H51.1881C48.7049 155.844 46.5393 157.758 46.4654 160.24C46.4468 160.847 46.5503 161.452 46.7697 162.018C46.9892 162.584 47.3201 163.101 47.7428 163.537C48.1656 163.972 48.6715 164.319 49.2308 164.556C49.79 164.792 50.391 164.914 50.9982 164.914H67.9055C68.1103 164.914 68.3132 164.955 68.5025 165.033C68.6918 165.112 68.8637 165.227 69.0086 165.372C69.1534 165.516 69.2683 165.688 69.3467 165.878C69.425 166.067 69.4653 166.27 69.4652 166.475V208.521C69.4652 208.934 69.3009 209.331 69.0084 209.623C68.7159 209.916 68.3191 210.08 67.9055 210.08H51.1881C48.7049 210.08 46.5393 211.994 46.4654 214.477C46.4468 215.084 46.5503 215.688 46.7697 216.254C46.9892 216.82 47.3201 217.337 47.7428 217.773C48.1656 218.209 48.6715 218.555 49.2308 218.792C49.79 219.029 50.391 219.151 50.9982 219.151H181.62C182.034 219.151 182.431 219.315 182.723 219.608C183.016 219.9 183.18 220.297 183.18 220.711V235.639C183.18 236.053 183.016 236.45 182.723 236.742C182.431 237.035 182.034 237.199 181.62 237.199H51.1881C48.7049 237.199 46.5393 239.113 46.4654 241.596C46.4468 242.202 46.5503 242.807 46.7697 243.373C46.9892 243.939 47.3201 244.456 47.7428 244.892C48.1656 245.328 48.6715 245.674 49.2308 245.911C49.79 246.148 50.391 246.27 50.9982 246.27H248.432C250.915 246.27 253.081 244.356 253.155 241.873C253.173 241.266 253.07 240.662 252.851 240.096C252.631 239.529 252.3 239.013 251.877 238.577C251.455 238.141 250.949 237.795 250.39 237.558C249.83 237.321 249.229 237.199 248.622 237.199H193.809C193.396 237.199 192.999 237.035 192.706 236.742C192.413 236.45 192.249 236.053 192.249 235.639V220.711C192.249 220.297 192.414 219.9 192.707 219.608C192.999 219.315 193.396 219.151 193.81 219.151ZM145.276 208.521C145.276 208.934 145.111 209.331 144.819 209.623C144.526 209.916 144.129 210.08 143.716 210.08H80.0959C79.6822 210.08 79.2855 209.916 78.993 209.623C78.7005 209.331 78.5361 208.934 78.5361 208.521V164.915H143.716C143.921 164.915 144.124 164.955 144.313 165.034C144.502 165.112 144.674 165.227 144.819 165.372C144.964 165.517 145.079 165.689 145.157 165.878C145.235 166.068 145.276 166.271 145.276 166.475V208.521ZM155.698 210.08C155.339 210.08 154.995 209.938 154.741 209.684C154.488 209.431 154.345 209.087 154.345 208.728V166.475C154.345 166.27 154.386 166.067 154.464 165.878C154.542 165.688 154.657 165.516 154.802 165.371C154.947 165.227 155.119 165.112 155.309 165.033C155.498 164.955 155.701 164.914 155.906 164.914H219.526C219.731 164.914 219.933 164.955 220.123 165.033C220.312 165.112 220.484 165.227 220.629 165.371C220.774 165.516 220.889 165.688 220.967 165.878C221.046 166.067 221.086 166.27 221.086 166.475V208.521C221.086 208.725 221.046 208.928 220.967 209.118C220.889 209.307 220.774 209.479 220.629 209.624C220.484 209.768 220.312 209.883 220.123 209.962C219.933 210.04 219.73 210.08 219.526 210.08H155.698ZM244.709 264.316H55.2908C58.9454 267.53 62.7605 270.557 66.7213 273.386H233.278C237.239 270.557 241.054 267.53 244.709 264.316Z" fill="#3C5082"/>
<path d="M110.75 182.69H92.0555C90.8527 182.69 89.6991 182.212 88.8486 181.362C87.9981 180.511 87.5203 179.358 87.5203 178.155C87.5203 176.952 87.9981 175.799 88.8486 174.948C89.6991 174.098 90.8527 173.62 92.0555 173.62H110.75C111.953 173.62 113.107 174.098 113.957 174.948C114.808 175.799 115.286 176.952 115.286 178.155C115.286 179.358 114.808 180.511 113.957 181.362C113.107 182.212 111.953 182.69 110.75 182.69ZM186.56 182.69H167.865C166.662 182.69 165.509 182.212 164.658 181.362C163.808 180.511 163.33 179.358 163.33 178.155C163.33 176.952 163.808 175.799 164.658 174.948C165.509 174.098 166.662 173.62 167.865 173.62H186.56C187.763 173.62 188.916 174.098 189.767 174.948C190.618 175.799 191.095 176.952 191.095 178.155C191.095 179.358 190.618 180.511 189.767 181.362C188.916 182.212 187.763 182.69 186.56 182.69ZM76.834 232.709H68.3801C67.1773 232.709 66.0238 232.231 65.1732 231.381C64.3227 230.53 63.8449 229.377 63.8449 228.174C63.8449 226.971 64.3227 225.818 65.1732 224.967C66.0238 224.117 67.1773 223.639 68.3801 223.639H76.834C78.0368 223.639 79.1903 224.117 80.0408 224.967C80.8913 225.818 81.3691 226.971 81.3691 228.174C81.3691 229.377 80.8913 230.53 80.0408 231.381C79.1903 232.231 78.0368 232.709 76.834 232.709Z" fill="#DAE2FE"/>
<path d="M38.8008 104.541L47.8746 96.8344C46.2123 91.067 52.3887 90.2549 52.3887 90.2549L36.1371 74.1352C33.8531 71.8694 29.9695 73.4877 29.9695 76.7051V113.992C30.9094 104.07 38.8008 104.541 38.8008 104.541Z" fill="#2D3C6B"/>
<path d="M44.8506 108.869C41.3666 108.869 38.4498 106.033 38.4498 102.468C38.4498 98.3894 42.2121 95.4064 46.0986 96.1887C47.5505 96.4793 48.8571 97.2635 49.7963 98.4082C50.7355 99.5529 51.2494 100.987 51.2508 102.468C51.2514 106.018 48.3475 108.869 44.8506 108.869Z" fill="#DAE2FE"/>
<path d="M404.114 218L375.014 93.064H405.666L422.156 168.336L439.228 110.718V93.064H464.836L486.37 168.53L503.636 93.064H534.288L505.382 218H476.476L455.524 145.832L433.02 218H404.114Z" fill="white"/>
<path d="M564.284 219.94C558.464 219.94 553.032 218.905 547.988 216.836C543.073 214.767 539.128 211.598 536.154 207.33C533.179 202.933 531.692 197.501 531.692 191.034C531.692 181.593 534.86 174.221 541.198 168.918C547.664 163.486 557.3 160.77 570.104 160.77H595.712V158.636C595.712 153.98 594.16 150.682 591.056 148.742C587.952 146.673 582.132 145.638 573.596 145.638C563.12 145.638 552.838 147.255 542.75 150.488V130.312C547.276 128.501 552.773 127.014 559.24 125.85C565.836 124.686 572.755 124.104 579.998 124.104C594.224 124.104 605.347 127.014 613.366 132.834C621.514 138.654 625.588 147.901 625.588 160.576V218H598.234L596.682 210.24C593.319 213.344 588.986 215.737 583.684 217.418C578.51 219.099 572.044 219.94 564.284 219.94ZM574.178 200.734C579.092 200.734 583.36 199.893 586.982 198.212C590.603 196.531 593.513 194.397 595.712 191.81V178.812H573.596C564.413 178.812 559.822 182.498 559.822 189.87C559.822 193.233 560.986 195.884 563.314 197.824C565.642 199.764 569.263 200.734 574.178 200.734Z" fill="white"/>
<path d="M682.148 219.94C670.766 219.94 662.36 217.03 656.928 211.21C651.625 205.39 648.974 197.371 648.974 187.154V149.712H636.558V126.044H648.974V106.838L680.208 98.496V126.044H702.518L701.16 149.712H680.208V185.02C680.208 189.417 681.307 192.521 683.506 194.332C685.704 196.013 689.003 196.854 693.4 196.854C697.151 196.854 700.966 196.207 704.846 194.914V216.06C698.767 218.647 691.201 219.94 682.148 219.94Z" fill="white"/>
<path d="M765.378 219.94C748.953 219.94 736.084 215.931 726.772 207.912C717.59 199.893 712.998 187.93 712.998 172.022C712.998 155.855 717.784 143.827 727.354 135.938C737.054 128.049 749.923 124.104 765.96 124.104C772.686 124.104 778.506 124.621 783.42 125.656C788.464 126.561 793.314 128.113 797.97 130.312V152.428C790.728 148.936 782.256 147.19 772.556 147.19C763.503 147.19 756.584 149.001 751.798 152.622C747.142 156.243 744.814 162.71 744.814 172.022C744.814 180.687 747.013 187.025 751.41 191.034C755.808 194.914 762.792 196.854 772.362 196.854C781.804 196.854 790.404 194.914 798.164 191.034V214.12C793.508 216.189 788.464 217.677 783.032 218.582C777.73 219.487 771.845 219.94 765.378 219.94Z" fill="white"/>
<path d="M814.068 218V87.244H845.302V132.834C848.794 130.247 853.127 128.178 858.3 126.626C863.473 124.945 869.034 124.104 874.984 124.104C887.27 124.104 896.259 127.014 901.95 132.834C907.77 138.654 910.68 147.578 910.68 159.606V218H879.446V161.74C879.446 156.437 878.346 152.687 876.148 150.488C873.949 148.289 870.005 147.19 864.314 147.19C860.951 147.19 857.524 147.966 854.032 149.518C850.54 151.07 847.63 153.01 845.302 155.338V218H814.068Z" fill="white"/>
<path d="M929.445 218V93.064H995.405C1007.95 93.064 1017.39 96.0387 1023.73 101.988C1030.2 107.937 1033.43 116.344 1033.43 127.208C1033.43 133.804 1032.14 139.365 1029.55 143.892C1027.09 148.289 1023.79 151.717 1019.65 154.174C1025.35 156.243 1029.81 159.283 1033.04 163.292C1036.27 167.301 1037.89 173.315 1037.89 181.334C1037.89 193.233 1034.4 202.351 1027.41 208.688C1020.43 214.896 1010.41 218 997.345 218H929.445ZM960.679 143.892H986.093C991.525 143.892 995.469 142.663 997.927 140.206C1000.38 137.749 1001.61 134.321 1001.61 129.924C1001.61 125.139 1000.38 121.582 997.927 119.254C995.469 116.797 991.007 115.568 984.541 115.568H960.679V143.892ZM960.679 195.69H989.197C994.887 195.69 999.091 194.526 1001.81 192.198C1004.65 189.87 1006.07 185.731 1006.07 179.782C1006.07 174.997 1004.72 171.44 1002 169.112C999.285 166.655 994.629 165.426 988.033 165.426H960.679V195.69Z" fill="white"/>
<path d="M1101.64 219.94C1083.93 219.94 1070.86 215.866 1062.46 207.718C1054.05 199.441 1049.85 187.542 1049.85 172.022C1049.85 156.631 1054.05 144.797 1062.46 136.52C1070.99 128.243 1084.05 124.104 1101.64 124.104C1119.36 124.104 1132.43 128.243 1140.83 136.52C1149.37 144.797 1153.64 156.631 1153.64 172.022C1153.64 187.542 1149.43 199.441 1141.03 207.718C1132.62 215.866 1119.49 219.94 1101.64 219.94ZM1101.64 195.496C1108.89 195.496 1114.06 193.685 1117.16 190.064C1120.27 186.443 1121.82 180.429 1121.82 172.022C1121.82 163.615 1120.27 157.601 1117.16 153.98C1114.06 150.359 1108.89 148.548 1101.64 148.548C1094.53 148.548 1089.42 150.359 1086.32 153.98C1083.21 157.601 1081.66 163.615 1081.66 172.022C1081.66 180.429 1083.21 186.443 1086.32 190.064C1089.42 193.685 1094.53 195.496 1101.64 195.496Z" fill="white"/>
<path d="M1155.92 218L1191.23 171.246L1157.28 126.044H1191.23L1208.3 149.13L1225.37 126.044H1259.32L1225.37 171.246L1260.68 218H1226.53L1208.3 193.75L1190.06 218H1155.92Z" fill="white"/>
</svg>
